# xmcd
#
# Track frame offsets: 
#        182
#        15225
#        30097
#        44590
#        58917
#        77220
#        92397
#        109072
#        127182
#        144605
#        161015
#        182230
#        199905
#        221327
#        234195
#        246875
#        267067
#        286887
#        303050
#        317997
#
# Disc length: 4479 seconds
#
# Revision: 5
# Processed by: cddbd v1.5.1PL0 Copyright (c) Steve Scherf et al.
# Submitted via: ExactAudioCopy v0.95a5
#
DISCID=10117d14
DTITLE=Vince Gill - The Essential Vince Gill
DYEAR=1995
DGENRE=Country
TTITLE0=Victim Of Life's Circumstances
TTITLE1=Oh Carolina
TTITLE2=I've Been Hearing Things About You
TTITLE3=Turn Me Loose
TTITLE4=The Radio
TTITLE5=Livin' The Way I Do
TTITLE6=Midnight Train
TTITLE7=True Love
TTITLE8=Ain't It Always That Way
TTITLE9=Oklahoma Borderline
TTITLE10=With You
TTITLE11=The Way Back Home
TTITLE12=Losing Your Love
TTITLE13=Everybody's Sweetheart
TTITLE14=Don't Say That You Love Me
TTITLE15=Something's Missing
TTITLE16=Colder Than Winter
TTITLE17=Cinderella
TTITLE18=Let's Do Something
TTITLE19=I Never Knew Lonely
EXTD=YEAR: 1995 ID3G: 2
EXTT0=
EXTT1=
EXTT2=
EXTT3=
EXTT4=
EXTT5=
EXTT6=
EXTT7=
EXTT8=
EXTT9=
EXTT10=
EXTT11=
EXTT12=
EXTT13=
EXTT14=
EXTT15=
EXTT16=
EXTT17=
EXTT18=
EXTT19=
PLAYORDER=
